# https://github.com/mikedh/trimesh
v 0.05396485 0.20000000 0.00000000
v 0.05396485 0.02276039 0.00000000
v 0.15135019 0.02276039 0.00000000
v 0.15135019 0.00000000 0.00000000
v 0.02691813 0.00000000 0.00000000
v 0.02691813 0.20000000 0.00000000
v 0.05396485 0.20000000 0.04000000
v 0.05396485 0.02276039 0.04000000
v 0.15135019 0.02276039 0.04000000
v 0.15135019 0.00000000 0.04000000
v 0.02691813 0.00000000 0.04000000
v 0.02691813 0.20000000 0.04000000
vn 0.57735027 0.57735027 -0.57735027
vn 0.30151134 0.30151134 -0.90453403
vn 0.57735027 0.57735027 -0.57735027
vn 0.57735027 -0.57735027 -0.57735027
vn -0.57735027 -0.57735027 -0.57735027
vn -0.57735027 0.57735027 -0.57735027
vn 0.57735027 0.57735027 0.57735027
vn 0.30151134 0.30151134 0.90453403
vn 0.57735027 0.57735027 0.57735027
vn 0.57735027 -0.57735027 0.57735027
vn -0.57735027 -0.57735027 0.57735027
vn -0.57735027 0.57735027 0.57735027
f 5//5 6//6 1//1
f 3//3 4//4 5//5
f 5//5 1//1 2//2
f 2//2 3//3 5//5
f 7//7 12//12 11//11
f 11//11 10//10 9//9
f 8//8 7//7 11//11
f 11//11 9//9 8//8
f 7//7 8//8 1//1
f 1//1 8//8 2//2
f 8//8 9//9 2//2
f 2//2 9//9 3//3
f 9//9 10//10 3//3
f 3//3 10//10 4//4
f 10//10 11//11 4//4
f 4//4 11//11 5//5
f 12//12 7//7 6//6
f 6//6 7//7 1//1
f 11//11 12//12 5//5
f 5//5 12//12 6//6

